# Made in Blockbench 4.12.1
mtllib tor_antenna.mtl

o cube
v 0.5 -0.375 0.5
v 0.5 -0.375 -0.5
v 0.5 -0.5 0.5
v 0.5 -0.5 -0.5
v -0.5 -0.375 -0.5
v -0.5 -0.375 0.5
v -0.5 -0.5 -0.5
v -0.5 -0.5 0.5
vt 0.4375 1
vt 0.6875 1
vt 0.6875 0.96875
vt 0.4375 0.96875
vt 0.4375 0.96875
vt 0.6875 0.96875
vt 0.6875 0.9375
vt 0.4375 0.9375
vt 0.4375 0.9375
vt 0.6875 0.9375
vt 0.6875 0.90625
vt 0.4375 0.90625
vt 0.4375 0.90625
vt 0.6875 0.90625
vt 0.6875 0.875
vt 0.4375 0.875
vt 0.25 0.75
vt 0 0.75
vt 0 1
vt 0.25 1
vt 0.25 0.75
vt 0 0.75
vt 0 0.5
vt 0.25 0.5
vn 0 0 -1
vn 1 0 0
vn 0 0 1
vn -1 0 0
vn 0 1 0
vn 0 -1 0
usemtl m_eb8ae104-efdf-e0cf-74cd-791b9b3eafb8
f 4/4/1 7/3/1 5/2/1 2/1/1
f 3/8/2 4/7/2 2/6/2 1/5/2
f 8/12/3 3/11/3 1/10/3 6/9/3
f 7/16/4 8/15/4 6/14/4 5/13/4
f 6/20/5 1/19/5 2/18/5 5/17/5
f 7/24/6 4/23/6 3/22/6 8/21/6
o plane
v 0.4375 -0.375 9.71445146547012e-17
v 0.4375 0.5 -9.71445146547012e-17
v -0.4375 -0.375 9.71445146547012e-17
v -0.4375 0.5 -9.71445146547012e-17
vt 0.4375 0.78125
vt 0.4375 1
vt 0.25 1
vt 0.25 0.78125
vn 0 2.220446049250313e-16 1
usemtl m_eb8ae104-efdf-e0cf-74cd-791b9b3eafb8
f 9/25/7 10/26/7 12/27/7 11/28/7
o plane
v 9.71445146547012e-17 -0.3749999999999999 0.4375000000000001
v 9.71445146547012e-17 0.5000000000000001 0.4374999999999999
v -9.71445146547012e-17 -0.3750000000000001 -0.4374999999999999
v -9.71445146547012e-17 0.4999999999999999 -0.4375000000000001
vt 0.4375 0.5625
vt 0.4375 0.78125
vt 0.25 0.78125
vt 0.25 0.5625
vn -1 4.930380657631324e-32 2.220446049250313e-16
usemtl m_eb8ae104-efdf-e0cf-74cd-791b9b3eafb8
f 13/29/8 14/30/8 16/31/8 15/32/8