# Made in Blockbench 4.12.1
mtllib tor_subspace_ion_thruster.mtl

o cube
v 0.5000000000000001 -0.4999999999999999 0.5
v 0.5000000000000001 -0.4999999999999999 -0.5
v -0.4999999999999999 -0.5000000000000001 0.5
v -0.4999999999999999 -0.5000000000000001 -0.5
v 0.5 0.06250000000000011 -0.5
v 0.5 0.06250000000000011 0.5
v -0.5 0.06249999999999989 -0.5
v -0.5 0.06249999999999989 0.5
vt 0.71875 1
vt 1 1
vt 1 0.5
vt 0.71875 0.5
vt 0 0.5
vt 0.5 0.5
vt 0.5 0
vt 0 0
vt 1 0.5
vt 0.71875 0.5
vt 0.71875 1
vt 1 1
vt 0.5 0.5
vt 1 0.5
vt 1 0
vt 0.5 0
vt 1 0.5
vt 0.71875 0.5
vt 0.71875 1
vt 1 1
vt 1 1
vt 0.71875 1
vt 0.71875 0.5
vt 1 0.5
vn 0 0 -1
vn 2.220446049250313e-16 -1 0
vn 0 0 1
vn -2.220446049250313e-16 1 0
vn 1 2.220446049250313e-16 0
vn -1 -2.220446049250313e-16 0
usemtl m_b48e54ca-dea4-be58-8aa0-eff46c8f9ced
f 4/4/1 7/3/1 5/2/1 2/1/1
f 3/8/2 4/7/2 2/6/2 1/5/2
f 8/12/3 3/11/3 1/10/3 6/9/3
f 7/16/4 8/15/4 6/14/4 5/13/4
f 6/20/5 1/19/5 2/18/5 5/17/5
f 7/24/6 4/23/6 3/22/6 8/21/6
o cube
v -0.375 0.25000000000000006 0.375
v -0.375 0.25000000000000006 -0.375
v 0.375 0.2499999999999999 0.375
v 0.375 0.2499999999999999 -0.375
v -0.375 0.06250000000000006 -0.375
v -0.375 0.06250000000000006 0.375
v 0.375 0.06249999999999989 -0.375
v 0.375 0.06249999999999989 0.375
vt 0 0.578125
vt 0 0.5
vt 0.3125 0.5
vt 0.3125 0.578125
vt 0 1
vt 0.3125 1
vt 0.3125 0.6875
vt 0 0.6875
vt 0 0.5
vt 0 0.578125
vt 0.3125 0.578125
vt 0.3125 0.5
vt 0.3203125 1
vt 0.4609375 1
vt 0.4609375 0.859375
vt 0.3203125 0.859375
vt 0 0.5
vt 0 0.578125
vt 0.3125 0.578125
vt 0.3125 0.5
vt 0 0.5
vt 0 0.578125
vt 0.3125 0.578125
vt 0.3125 0.5
vn 0 0 -1
vn 2.220446049250313e-16 1 0
vn 0 0 1
vn -2.220446049250313e-16 -1 0
vn -1 2.220446049250313e-16 0
vn 1 -2.220446049250313e-16 0
usemtl m_b48e54ca-dea4-be58-8aa0-eff46c8f9ced
f 12/28/7 15/27/7 13/26/7 10/25/7
f 11/32/8 12/31/8 10/30/8 9/29/8
f 16/36/9 11/35/9 9/34/9 14/33/9
f 15/40/10 16/39/10 14/38/10 13/37/10
f 14/44/11 9/43/11 10/42/11 13/41/11
f 15/48/12 12/47/12 11/46/12 16/45/12
o cylinder
v 0 0.5 0
v -0.14238591206575144 0.5 0.34375
v -0.1423859120657514 0.25 0.34375
v -0.34375 0.49999999999999994 0.14238591206575146
v -0.34374999999999994 0.24999999999999994 0.14238591206575146
v -0.34375 0.49999999999999994 -0.1423859120657514
v -0.34374999999999994 0.24999999999999994 -0.1423859120657514
v -0.14238591206575146 0.5 -0.34375
v -0.14238591206575144 0.25 -0.34375
v 0.1423859120657514 0.5 -0.34375000000000006
v 0.14238591206575144 0.25 -0.34375000000000006
v 0.34375 0.5 -0.14238591206575163
v 0.34375000000000006 0.25000000000000006 -0.14238591206575163
v 0.34375 0.5 0.14238591206575152
v 0.34375000000000006 0.25000000000000006 0.14238591206575152
v 0.14238591206575169 0.5 0.34374999999999994
v 0.1423859120657517 0.25 0.34374999999999994
vt 0.7107421875000001 0.6960937500000001
vt 0.7104835477148088 0.815234375
vt 0.525390625 0.7556640625
vt 0.3203125 0.859375
vt 0.4609375 0.859375
vt 0.4609375 1
vt 0.3203125 1
vt 0.7109375 0.6796875
vt 0.7109375 0.8203125
vt 0.5234375 0.7500000000000001
vt 0.3203125 0.6875
vt 0.4609375 0.6875
vt 0.4609375 0.828125
vt 0.3203125 0.828125
vt 0.7109869110213956 0.6883306610213955
vt 0.7107480244098845 0.8203619110213954
vt 0.5234869110213956 0.7543462860213954
vt 0.3203125 0.859375
vt 0.4609375 0.859375
vt 0.4609375 1
vt 0.3203125 1
vt 0.7106676605579421 0.6787874566478395
vt 0.7106676605579422 0.8194124566478395
vt 0.5231676605579422 0.7568035111986728
vt 0.3203125 0.6875
vt 0.4609375 0.6875
vt 0.4609375 0.828125
vt 0.3203125 0.828125
vt 0.71171875 0.67890625
vt 0.7114690049061474 0.81796875
vt 0.52421875 0.7525275735294118
vt 0.3203125 0.859375
vt 0.4609375 0.859375
vt 0.4609375 1
vt 0.3203125 1
vt 0.7109375 0.6796875
vt 0.7109375 0.8203125
vt 0.5234375 0.75
vt 0.3203125 0.6875
vt 0.4609375 0.6875
vt 0.4609375 0.828125
vt 0.3203125 0.828125
vt 0.7109375 0.671875
vt 0.7109374999999999 0.8125
vt 0.5234375 0.7597150107544106
vt 0.3203125 0.859375
vt 0.4609375 0.859375
vt 0.4609375 1
vt 0.3203125 1
vt 0.7109375 0.6828125
vt 0.7109374999999999 0.815625
vt 0.5234375 0.7516284991313265
vt 0.3203125 0.6875
vt 0.4609375 0.6875
vt 0.4609375 0.828125
vt 0.3203125 0.828125
vn -1.2246467991473532e-16 1 0
vn -0.7071067811865475 -8.659560562354932e-17 0.7071067811865476
vn -1.2246467991473532e-16 1 0
vn -1 -1.2246467991473532e-16 0
vn -1.2246467991473532e-16 1 0
vn -0.7071067811865476 -8.659560562354934e-17 -0.7071067811865475
vn -1.2246467991473532e-16 1 0
vn -1.9493203514974047e-16 -2.38722892897409e-32 -1
vn -1.2246467991473532e-16 1 0
vn 0.7071067811865472 8.659560562354929e-17 -0.7071067811865478
vn -1.2246467991473532e-16 1 0
vn 1 1.2246467991473532e-16 0
vn -1.2246467991473532e-16 1 0
vn 0.7071067811865478 8.659560562354937e-17 0.7071067811865474
vn -1.2246467991473532e-16 1 0
vn 1.9493203514974027e-16 2.3872289289740876e-32 1
usemtl m_b48e54ca-dea4-be58-8aa0-eff46c8f9ced
f 20/49/13 18/50/13 17/51/13
f 18/52/14 20/53/14 21/54/14 19/55/14
f 22/56/15 20/57/15 17/58/15
f 20/59/16 22/60/16 23/61/16 21/62/16
f 24/63/17 22/64/17 17/65/17
f 22/66/18 24/67/18 25/68/18 23/69/18
f 26/70/19 24/71/19 17/72/19
f 24/73/20 26/74/20 27/75/20 25/76/20
f 28/77/21 26/78/21 17/79/21
f 26/80/22 28/81/22 29/82/22 27/83/22
f 30/84/23 28/85/23 17/86/23
f 28/87/24 30/88/24 31/89/24 29/90/24
f 32/91/25 30/92/25 17/93/25
f 30/94/26 32/95/26 33/96/26 31/97/26
f 18/98/27 32/99/27 17/100/27
f 32/101/28 18/102/28 19/103/28 33/104/28