# Made in Blockbench 4.12.1
mtllib tor_atomic_flux_cell.mtl

o cube
v -0.5000000000000001 0.125 -0.49999999999999994
v -0.49999999999999994 0.125 0.5000000000000001
v -0.5000000000000001 -0.5 -0.49999999999999994
v -0.49999999999999994 -0.5 0.5000000000000001
v 0.49999999999999994 0.125 -0.5000000000000001
v 0.5000000000000001 0.125 0.49999999999999994
v 0.49999999999999994 -0.5 -0.5000000000000001
v 0.5000000000000001 -0.5 0.49999999999999994
vt 0.265625 0.671875
vt 0.265625 0.828125
vt 0.515625 0.828125
vt 0.515625 0.671875
vt 0.515625 0.671875
vt 0.515625 0.828125
vt 0.265625 0.828125
vt 0.265625 0.671875
vt 0.25 0.75
vt 0.25 1
vt 0 1
vt 0 0.75
vt 0.515625 0.5
vt 0.515625 0.65625
vt 0.265625 0.65625
vt 0.265625 0.5
vt 0.515625 0.25
vt 0.515625 0.40625
vt 0.265625 0.40625
vt 0.265625 0.25
vt 0.25 0.484375
vt 0.25 0.734375
vt 0 0.734375
vt 0 0.484375
vn -1 0 1.2246467991473532e-16
vn 1 0 -1.2246467991473532e-16
vn 0 -1 0
vn -1.2246467991473532e-16 0 -1
vn 1.2246467991473532e-16 0 1
vn 0 1 0
usemtl m_3decc4e5-32a7-b24a-8763-fd65b42af4fa
f 4/1/1 2/2/1 1/3/1 3/4/1
f 7/5/2 5/6/2 6/7/2 8/8/2
f 4/9/3 3/10/3 7/11/3 8/12/3
f 3/13/4 1/14/4 5/15/4 7/16/4
f 8/17/5 6/18/5 2/19/5 4/20/5
f 1/21/6 2/22/6 6/23/6 5/24/6
o cube
v -0.5 0.4375 0.1250000000000001
v -0.5 0.4375 0.5000000000000001
v -0.5 0.125 0.1250000000000001
v -0.5 0.125 0.5000000000000001
v 0.49999999999999994 0.4375 0.125
v 0.5 0.4375 0.5
v 0.49999999999999994 0.125 0.125
v 0.5 0.125 0.5
vt 0.359375 0.828125
vt 0.359375 0.90625
vt 0.265625 0.90625
vt 0.265625 0.828125
vt 0.359375 0.828125
vt 0.359375 0.90625
vt 0.265625 0.90625
vt 0.265625 0.828125
vt 0.25 0.375
vt 0.25 0.46875
vt 0 0.46875
vt 0 0.375
vt 0.78125 0.921875
vt 0.78125 1
vt 0.53125 1
vt 0.53125 0.921875
vt 0.515625 0.40625
vt 0.515625 0.484375
vt 0.265625 0.484375
vt 0.265625 0.40625
vn -1 0 1.2246467991473532e-16
vn 1 0 -1.2246467991473532e-16
vn 0 1 0
vn -1.2246467991473532e-16 0 -1
vn 1.2246467991473532e-16 0 1
usemtl m_3decc4e5-32a7-b24a-8763-fd65b42af4fa
f 12/25/7 10/26/7 9/27/7 11/28/7
f 15/29/8 13/30/8 14/31/8 16/32/8
f 9/33/9 10/34/9 14/35/9 13/36/9
f 11/37/10 9/38/10 13/39/10 15/40/10
f 16/41/11 14/42/11 10/43/11 12/44/11
o cube
v 0.32812499999999994 0.25 -0.14062499999999997
v 0.20312499999999994 0.25 -0.140625
v 0.32812499999999994 0.125 -0.14062499999999997
v 0.20312499999999994 0.125 -0.140625
v 0.32812499999999994 0.25 -0.015625
v 0.20312499999999994 0.25 -0.015625
v 0.32812499999999994 0.125 -0.015625
v 0.20312499999999994 0.125 -0.015625
vt 0.5625 0.59375
vt 0.5625 0.625
vt 0.53125 0.625
vt 0.53125 0.59375
vt 0.609375 0.328125
vt 0.609375 0.359375
vt 0.578125 0.359375
vt 0.578125 0.328125
vt 0.5625 0.515625
vt 0.5625 0.546875
vt 0.53125 0.546875
vt 0.53125 0.515625
vt 0.5625 0.515625
vt 0.5625 0.546875
vt 0.53125 0.546875
vt 0.53125 0.515625
vt 0.5625 0.515625
vt 0.5625 0.546875
vt 0.53125 0.546875
vt 0.53125 0.515625
vn 2.220446049250313e-16 0 -1
vn 0 1 0
vn 1 0 2.220446049250313e-16
vn -1 0 -2.220446049250313e-16
vn -2.220446049250313e-16 0 1
usemtl m_3decc4e5-32a7-b24a-8763-fd65b42af4fa
f 20/45/12 18/46/12 17/47/12 19/48/12
f 17/49/13 18/50/13 22/51/13 21/52/13
f 19/53/14 17/54/14 21/55/14 23/56/14
f 24/57/15 22/58/15 18/59/15 20/60/15
f 23/61/16 21/62/16 22/63/16 24/64/16
o cube
v 0.32812499999999994 0.28125 -0.359375
v 0.20312499999999994 0.28125 -0.359375
v 0.32812499999999994 0.125 -0.359375
v 0.20312499999999994 0.125 -0.359375
v 0.32812499999999994 0.28125 -0.234375
v 0.20312499999999994 0.28125 -0.234375
v 0.32812499999999994 0.125 -0.234375
v 0.20312499999999994 0.125 -0.234375
vt 0.5625 0.5
vt 0.5625 0.546875
vt 0.53125 0.546875
vt 0.53125 0.5
vt 0.5625 0.5
vt 0.5625 0.546875
vt 0.53125 0.546875
vt 0.53125 0.5
vt 0.609375 0.328125
vt 0.609375 0.359375
vt 0.578125 0.359375
vt 0.578125 0.328125
vt 0.5625 0.578125
vt 0.5625 0.625
vt 0.53125 0.625
vt 0.53125 0.578125
vt 0.5625 0.578125
vt 0.5625 0.625
vt 0.53125 0.625
vt 0.53125 0.578125
vn 2.220446049250313e-16 0 -1
vn -2.220446049250313e-16 0 1
vn 0 1 0
vn 1 0 2.220446049250313e-16
vn -1 0 -2.220446049250313e-16
usemtl m_3decc4e5-32a7-b24a-8763-fd65b42af4fa
f 28/65/17 26/66/17 25/67/17 27/68/17
f 31/69/18 29/70/18 30/71/18 32/72/18
f 25/73/19 26/74/19 30/75/19 29/76/19
f 27/77/20 25/78/20 29/79/20 31/80/20
f 32/81/21 30/82/21 26/83/21 28/84/21
o cube
v 0.14062499999999994 0.171875 -0.23437499999999997
v 0.015624999999999958 0.171875 -0.234375
v 0.14062499999999994 0.046875 -0.23437499999999997
v 0.015624999999999958 0.046875 -0.234375
v 0.14062499999999994 0.171875 -0.109375
v 0.01562499999999993 0.171875 -0.109375
v 0.14062499999999994 0.046875 -0.109375
v 0.01562499999999993 0.046875 -0.109375
vt 0.5625 0.515625
vt 0.5625 0.546875
vt 0.53125 0.546875
vt 0.53125 0.515625
vt 0.5625 0.59375
vt 0.5625 0.625
vt 0.53125 0.625
vt 0.53125 0.59375
vt 0.609375 0.328125
vt 0.609375 0.359375
vt 0.578125 0.359375
vt 0.578125 0.328125
vt 0.5625 0.59375
vt 0.5625 0.625
vt 0.53125 0.625
vt 0.53125 0.59375
vt 0.5625 0.515625
vt 0.5625 0.546875
vt 0.53125 0.546875
vt 0.53125 0.515625
vn 2.220446049250313e-16 0 -1
vn -2.220446049250313e-16 0 1
vn 0 1 0
vn 1 0 2.220446049250313e-16
vn -1 0 -2.220446049250313e-16
usemtl m_3decc4e5-32a7-b24a-8763-fd65b42af4fa
f 36/85/22 34/86/22 33/87/22 35/88/22
f 39/89/23 37/90/23 38/91/23 40/92/23
f 33/93/24 34/94/24 38/95/24 37/96/24
f 35/97/25 33/98/25 37/99/25 39/100/25
f 40/101/26 38/102/26 34/103/26 36/104/26
o cube
v -0.03125000000000004 0.375 -0.359375
v -0.15625000000000006 0.375 -0.359375
v -0.03125000000000004 0.125 -0.359375
v -0.15625000000000006 0.125 -0.359375
v -0.03125000000000007 0.375 -0.234375
v -0.15625000000000006 0.375 -0.234375
v -0.03125000000000007 0.125 -0.234375
v -0.15625000000000006 0.125 -0.234375
vt 0.5625 0.5625
vt 0.5625 0.625
vt 0.53125 0.625
vt 0.53125 0.5625
vt 0.5625 0.484375
vt 0.5625 0.546875
vt 0.53125 0.546875
vt 0.53125 0.484375
vt 0.609375 0.328125
vt 0.609375 0.359375
vt 0.578125 0.359375
vt 0.578125 0.328125
vt 0.5625 0.5625
vt 0.5625 0.625
vt 0.53125 0.625
vt 0.53125 0.5625
vt 0.5625 0.5625
vt 0.5625 0.625
vt 0.53125 0.625
vt 0.53125 0.5625
vn 2.220446049250313e-16 0 -1
vn -2.220446049250313e-16 0 1
vn 0 1 0
vn 1 0 2.220446049250313e-16
vn -1 0 -2.220446049250313e-16
usemtl m_3decc4e5-32a7-b24a-8763-fd65b42af4fa
f 44/105/27 42/106/27 41/107/27 43/108/27
f 47/109/28 45/110/28 46/111/28 48/112/28
f 41/113/29 42/114/29 46/115/29 45/116/29
f 43/117/30 41/118/30 45/119/30 47/120/30
f 48/121/31 46/122/31 42/123/31 44/124/31
o cube
v -0.23437500000000006 0.171875 -0.34375
v -0.35937500000000006 0.171875 -0.34375
v -0.23437500000000006 0.109375 -0.34375
v -0.35937500000000006 0.109375 -0.34375
v -0.23437500000000006 0.171875 -0.21875
v -0.35937500000000006 0.171875 -0.21875
v -0.23437500000000006 0.109375 -0.21875
v -0.35937500000000006 0.109375 -0.21875
vt 0.5703125 0.53125
vt 0.5703125 0.546875
vt 0.5390625 0.546875
vt 0.5390625 0.53125
vt 0.5625 0.53125
vt 0.5625 0.546875
vt 0.53125 0.546875
vt 0.53125 0.53125
vt 0.609375 0.328125
vt 0.609375 0.359375
vt 0.578125 0.359375
vt 0.578125 0.328125
vt 0.5625 0.609375
vt 0.5625 0.625
vt 0.53125 0.625
vt 0.53125 0.609375
vt 0.5625 0.53125
vt 0.5625 0.546875
vt 0.53125 0.546875
vt 0.53125 0.53125
vn 2.220446049250313e-16 0 -1
vn -2.220446049250313e-16 0 1
vn 0 1 0
vn 1 0 2.220446049250313e-16
vn -1 0 -2.220446049250313e-16
usemtl m_3decc4e5-32a7-b24a-8763-fd65b42af4fa
f 52/125/32 50/126/32 49/127/32 51/128/32
f 55/129/33 53/130/33 54/131/33 56/132/33
f 49/133/34 50/134/34 54/135/34 53/136/34
f 51/137/35 49/138/35 53/139/35 55/140/35
f 56/141/36 54/142/36 50/143/36 52/144/36
o cube
v -0.10937500000000004 0.3125 -0.15624999999999997
v -0.23437500000000006 0.3125 -0.15625
v -0.10937500000000004 0.125 -0.15624999999999997
v -0.23437500000000006 0.125 -0.15625
v -0.10937500000000007 0.3125 -0.03125
v -0.23437500000000006 0.3125 -0.03125
v -0.10937500000000007 0.125 -0.03125
v -0.23437500000000006 0.125 -0.03125
vt 0.5625 0.578125
vt 0.5625 0.625
vt 0.53125 0.625
vt 0.53125 0.578125
vt 0.5625 0.5
vt 0.5625 0.546875
vt 0.53125 0.546875
vt 0.53125 0.5
vt 0.609375 0.328125
vt 0.609375 0.359375
vt 0.578125 0.359375
vt 0.578125 0.328125
vt 0.5625 0.5
vt 0.5625 0.546875
vt 0.53125 0.546875
vt 0.53125 0.5
vt 0.5625 0.5
vt 0.5625 0.546875
vt 0.53125 0.546875
vt 0.53125 0.5
vn 2.220446049250313e-16 0 -1
vn -2.220446049250313e-16 0 1
vn 0 1 0
vn 1 0 2.220446049250313e-16
vn -1 0 -2.220446049250313e-16
usemtl m_3decc4e5-32a7-b24a-8763-fd65b42af4fa
f 60/145/37 58/146/37 57/147/37 59/148/37
f 63/149/38 61/150/38 62/151/38 64/152/38
f 57/153/39 58/154/39 62/155/39 61/156/39
f 59/157/40 57/158/40 61/159/40 63/160/40
f 64/161/41 62/162/41 58/163/41 60/164/41